<?xml version="1.0" encoding="UTF-8"?>
<svg width="480px" height="480px" viewBox="0 0 480 480" version="1.1" xmlns="http://www.w3.org/2000/svg" xmlns:xlink="http://www.w3.org/1999/xlink">
    <title>Artboard</title>
    <defs>
        <filter color-interpolation-filters="auto" id="filter-1">
            <feColorMatrix in="SourceGraphic" type="matrix" values="0 0 0 0 1.000000 0 0 0 0 0.000000 0 0 0 0 0.253664 0 0 0 1.000000 0"></feColorMatrix>
        </filter>
    </defs>
    <g id="Artboard" stroke="none" stroke-width="1" fill="none" fill-rule="evenodd">
        <rect id="Rectangle" fill="#222222" x="0" y="0" width="480" height="480" rx="240"></rect>
        <g filter="url(#filter-1)" id="middle-finger">
            <g transform="translate(120.000000, 120.000000)">
                <rect id="Rectangle" x="0" y="0" width="240" height="240"></rect>
                <g id="Group" transform="translate(44.999870, 5.000000)" fill-rule="nonzero">
                    <path d="M120.00013,90 C116.24861,90.0150342 112.640536,91.4432676 109.89513,94 C109.344245,85.9574348 102.521711,79.7965083 94.4648077,80.066015 C86.4079045,80.3355217 80.0123316,86.9385993 80.0001304,95 L80.0001304,15 C80.0001301,6.71572848 73.2844015,-1.11022302e-15 65.0001304,-1.11022302e-15 C56.7158593,-1.11022302e-15 50.0001306,6.71572848 50.0001304,15 L50.0001304,83.8999996 C45.6204568,79.9048541 39.2924598,78.8782476 33.8743726,81.2838783 C28.4562853,83.689509 24.9738953,89.0719274 25.0001304,95 L25.0001304,110 L18.0001304,110 C8.06699289,110.019258 0.0193887112,118.066862 0,128 L0,142.5 C-0.0251054084,151.747552 3.61361351,160.628615 10.1201304,167.2 L31.1201304,193.155 C35.2593696,197.750673 39.917085,201.851342 45.0001304,205.375 L45.0001304,225 C45.0001304,227.761423 47.2387066,230 50.0001304,230 L120.00013,230 C122.761554,230 125.00013,227.761423 125.00013,225 L125.00013,197.47 C131.430489,190.461562 134.998762,181.296451 135.00013,171.785 L135.00013,105 C135.00013,96.7157283 128.284402,90 120.00013,90 Z" id="Path" fill="#FFD764"></path>
                    <path d="M15.0001304,145 C15.0001304,147.761423 17.2387066,150 20.0001304,150 C22.7615541,150 25.0001304,147.761423 25.0001304,145 L25.0001304,110 L18.0001304,110 C16.9932478,110.015679 15.989567,110.11772 15.0001304,110.305 L15.0001304,145 Z" id="Path" fill="#E2AC4B"></path>
                </g>
            </g>
        </g>
    </g>
</svg>