<?xml version="1.0" encoding="UTF-8"?>
<svg width="320px" height="320px" viewBox="0 0 320 320" version="1.1" xmlns="http://www.w3.org/2000/svg" xmlns:xlink="http://www.w3.org/1999/xlink">
    <!-- Generator: Sketch 45 (43475) - http://www.bohemiancoding.com/sketch -->
    <title>Artboard Copy 6</title>
    <desc>Created with Sketch.</desc>
    <defs></defs>
    <g id="Page-1" stroke="none" stroke-width="1" fill="none" fill-rule="evenodd">
        <g id="Artboard-Copy-6">
            <rect id="Rectangle-2" fill-opacity="0.340000004" fill="#FFFFFF" opacity="0" x="-84" y="-72" width="1482" height="360"></rect>
            <g id="Group" transform="translate(46.000000, 52.000000)">
                <polygon id="Rectangle" fill="#606BFF" transform="translate(207.000000, 195.000000) scale(-1, 1) translate(-207.000000, -195.000000) " points="186 174 228 216 186 216"></polygon>
                <polygon id="Rectangle" fill="#606BFF" transform="translate(162.000000, 69.000000) scale(-1, 1) translate(-162.000000, -69.000000) " points="96 0 228 126 198 138 96 42"></polygon>
                <polygon id="Rectangle" fill="#606BFF" transform="translate(186.000000, 129.000000) scale(-1, 1) translate(-186.000000, -129.000000) " points="144 84 228 168 192 174 144 126"></polygon>
                <polygon id="Rectangle" fill="#000000" points="0 174 42 216 0 216"></polygon>
                <polygon id="Rectangle" fill="#000000" points="0 0 228 216 186 216 0 42"></polygon>
                <polygon id="Rectangle" fill="#000000" points="0 84 138 216 96 216 0 126"></polygon>
            </g>
        </g>
    </g>
</svg>