<svg xmlns="http://www.w3.org/2000/svg" xmlns:xlink="http://www.w3.org/1999/xlink" width="320" height="320" version="1.1" viewBox="0 0 320 320"><title>Artboard Copy 6</title><desc>Created with Sketch.</desc><g id="Page-1" fill="none" fill-rule="evenodd" stroke="none" stroke-width="1"><g id="Artboard-Copy-6"><rect id="Rectangle-2" width="1482" height="360" x="-84" y="-72" fill="#FFF" fill-opacity=".34" opacity="0"/><g id="Group" transform="translate(46.000000, 52.000000)"><polygon id="Rectangle" fill="#606BFF" points="186 174 228 216 186 216" transform="translate(207.000000, 195.000000) scale(-1, 1) translate(-207.000000, -195.000000)"/><polygon id="Rectangle" fill="#606BFF" points="96 0 228 126 198 138 96 42" transform="translate(162.000000, 69.000000) scale(-1, 1) translate(-162.000000, -69.000000)"/><polygon id="Rectangle" fill="#606BFF" points="144 84 228 168 192 174 144 126" transform="translate(186.000000, 129.000000) scale(-1, 1) translate(-186.000000, -129.000000)"/><polygon id="Rectangle" fill="#000" points="0 174 42 216 0 216"/><polygon id="Rectangle" fill="#000" points="0 0 228 216 186 216 0 42"/><polygon id="Rectangle" fill="#000" points="0 84 138 216 96 216 0 126"/></g></g></g></svg>