<?xml version="1.0" encoding="UTF-8"?>
<svg width="134px" height="102px" viewBox="0 0 134 102" version="1.1" xmlns="http://www.w3.org/2000/svg" xmlns:xlink="http://www.w3.org/1999/xlink">
    <!-- Generator: Sketch 40.3 (33839) - http://www.bohemiancoding.com/sketch -->
    <title>Group 3</title>
    <desc>Created with Sketch.</desc>
    <defs>
        <filter x="-50%" y="-50%" width="200%" height="200%" filterUnits="objectBoundingBox" id="filter-1">
            <feOffset dx="0" dy="8" in="SourceAlpha" result="shadowOffsetOuter1"></feOffset>
            <feGaussianBlur stdDeviation="10" in="shadowOffsetOuter1" result="shadowBlurOuter1"></feGaussianBlur>
            <feColorMatrix values="0 0 0 0 0   0 0 0 0 0   0 0 0 0 0  0 0 0 0.14 0" type="matrix" in="shadowBlurOuter1" result="shadowMatrixOuter1"></feColorMatrix>
            <feMerge>
                <feMergeNode in="shadowMatrixOuter1"></feMergeNode>
                <feMergeNode in="SourceGraphic"></feMergeNode>
            </feMerge>
        </filter>
    </defs>
    <g id="Page-1" stroke="none" stroke-width="1" fill="none" fill-rule="evenodd">
        <g id="Group-3" transform="translate(-11.000000, -36.000000)">
            <g id="icon_scattered_clouds_night" filter="url(#filter-1)" transform="translate(30.000000, 47.000000)" fill="#FFFFFF">
                <path d="M23,63 L78,63 C87.7696877,63 96,54.3614919 96,43 C96,35.4568059 90.4268076,28.237488 82,25 C82.3811894,18.1864839 76.1177742,12.0411221 69,13 C66.1614288,12.0411221 64.048871,12.5948358 62,14 C58.8269782,5.57252152 50.9965191,0 43,0 C31.9130478,0 23.5056576,6.64360854 21,15 C9.01764233,17.1813835 0,27.1023271 0,39 C0,52.0940389 9.77260331,63 23,63" id="cloud"></path>
            </g>
            <rect id="Rectangle" x="0" y="0" width="156" height="156"></rect>
        </g>
    </g>
</svg>