<svg xmlns="http://www.w3.org/2000/svg" xmlns:xlink="http://www.w3.org/1999/xlink" width="134" height="102" version="1.1" viewBox="0 0 134 102"><title>Group 3</title><desc>Created with Sketch.</desc><defs><filter id="filter-1" width="200%" height="200%" x="-50%" y="-50%" filterUnits="objectBoundingBox"><feOffset dx="0" dy="8" in="SourceAlpha" result="shadowOffsetOuter1"/><feGaussianBlur in="shadowOffsetOuter1" result="shadowBlurOuter1" stdDeviation="10"/><feColorMatrix in="shadowBlurOuter1" result="shadowMatrixOuter1" type="matrix" values="0 0 0 0 0 0 0 0 0 0 0 0 0 0 0 0 0 0 0.14 0"/><feMerge><feMergeNode in="shadowMatrixOuter1"/><feMergeNode in="SourceGraphic"/></feMerge></filter></defs><g id="Page-1" fill="none" fill-rule="evenodd" stroke="none" stroke-width="1"><g id="Group-3" transform="translate(-11.000000, -36.000000)"><g id="icon_scattered_clouds_night" fill="#FFF" filter="url(#filter-1)" transform="translate(30.000000, 47.000000)"><path id="cloud" d="M23,63 L78,63 C87.7696877,63 96,54.3614919 96,43 C96,35.4568059 90.4268076,28.237488 82,25 C82.3811894,18.1864839 76.1177742,12.0411221 69,13 C66.1614288,12.0411221 64.048871,12.5948358 62,14 C58.8269782,5.57252152 50.9965191,0 43,0 C31.9130478,0 23.5056576,6.64360854 21,15 C9.01764233,17.1813835 0,27.1023271 0,39 C0,52.0940389 9.77260331,63 23,63"/></g><rect id="Rectangle" width="156" height="156" x="0" y="0"/></g></g></svg>