<svg xmlns="http://www.w3.org/2000/svg" xmlns:xlink="http://www.w3.org/1999/xlink" width="140" height="140" version="1.1" viewBox="0 0 140 140"><title>Group 2</title><desc>Created with Sketch.</desc><defs><linearGradient id="linearGradient-1" x1="50%" x2="50%" y1="0%" y2="100%"><stop offset="0%" stop-color="#FFF" stop-opacity=".5"/><stop offset="100%" stop-color="#000" stop-opacity=".5"/></linearGradient><polygon id="path-2" points="72 124 48 140 40 112 14 112 22 86 0 70 22 54 14 28 40 28 48 0 68 16 92 0 100 28 126 28 118 54 140 70 118 86 126 112 100 112 92 140"/><circle id="path-3" cx="70" cy="70" r="38"/><filter id="filter-4" width="200%" height="200%" x="-50%" y="-50%" filterUnits="objectBoundingBox"><feOffset dx="0" dy="8" in="SourceAlpha" result="shadowOffsetOuter1"/><feGaussianBlur in="shadowOffsetOuter1" result="shadowBlurOuter1" stdDeviation="8"/><feColorMatrix in="shadowBlurOuter1" type="matrix" values="0 0 0 0 0 0 0 0 0 0 0 0 0 0 0 0 0 0 0.1 0"/></filter></defs><g id="Page-1" fill="none" fill-rule="evenodd" stroke="none" stroke-width="1"><g id="Group-2" transform="translate(-8.000000, -8.000000)"><rect id="Rectangle" width="156" height="156" x="0" y="0"/><g id="Group" transform="translate(8.000000, 8.000000)"><g id="Star"><use fill="#FCC02E" xlink:href="#path-2"/><use fill="url(#linearGradient-1)" fill-opacity=".3" style="mix-blend-mode:overlay" xlink:href="#path-2"/></g><g id="Oval"><use fill="#000" fill-opacity="1" filter="url(#filter-4)" xlink:href="#path-3"/><use fill="#FEE6AC" fill-rule="evenodd" xlink:href="#path-3"/></g></g></g></g></svg>