<svg xmlns="http://www.w3.org/2000/svg" xmlns:xlink="http://www.w3.org/1999/xlink" id="Layer_1" width="96" height="96" x="0" y="0" enable-background="new 0 0 96 96" version="1.1" viewBox="0 0 96 96" xml:space="preserve"><switch><g><path d="M24,88h48L48,56L24,88z M40,80l8-10.667L56,80H40z M80,8H16C9.37,8,4,13.37,4,20v40c0,6.63,5.37,12,12,12h10l6-8H16 c-2.21,0-4-1.79-4-4V20c0-2.21,1.79-4,4-4h64c2.21,0,4,1.79,4,4v40c0,2.21-1.79,4-4,4H64l6,8h10c6.63,0,12-5.37,12-12V20 C92,13.37,86.63,8,80,8z"/></g></switch></svg>