<svg xmlns="http://www.w3.org/2000/svg" xmlns:xlink="http://www.w3.org/1999/xlink" id="Layer_1" width="96" height="96" x="0" y="0" enable-background="new 0 0 96 96" version="1.1" viewBox="0 0 96 96" xml:space="preserve"><switch><g><path d="M88,24c0-2.209-1.791-4-4-4H12c-2.209,0-4,1.791-4,4s1.791,4,4,4h72C86.209,28,88,26.209,88,24z M88,40 c0-2.209-1.791-4-4-4H28c-2.209,0-4,1.791-4,4s1.791,4,4,4h56C86.209,44,88,42.209,88,40z M8,56c0,2.209,1.791,4,4,4h72 c2.209,0,4-1.791,4-4s-1.791-4-4-4H12C9.791,52,8,53.791,8,56z M24,72c0,2.209,1.791,4,4,4h56c2.209,0,4-1.791,4-4s-1.791-4-4-4 H28C25.791,68,24,69.791,24,72z"/></g></switch></svg>