<svg xmlns="http://www.w3.org/2000/svg" xmlns:xlink="http://www.w3.org/1999/xlink" id="Layer_1" width="96" height="96" x="0" y="0" enable-background="new 0 0 96 96" version="1.1" viewBox="0 0 96 96" xml:space="preserve"><switch><g><path d="M84,80H64c-1.436,0-2.761-0.77-3.473-2.016L29.679,24H12c-2.209,0-4-1.791-4-4s1.791-4,4-4h20 c1.436,0,2.761,0.77,3.473,2.016L66.321,72H84c2.209,0,4,1.791,4,4S86.209,80,84,80z M80,20c0-2.209-1.791-4-4-4H56 c-2.209,0-4,1.791-4,4s1.791,4,4,4h20C78.209,24,80,22.209,80,20z"/></g></switch></svg>