<svg xmlns="http://www.w3.org/2000/svg" xmlns:xlink="http://www.w3.org/1999/xlink" id="Layer_1" width="96" height="96" x="0" y="0" enable-background="new 0 0 96 96" version="1.1" viewBox="0 0 96 96" xml:space="preserve"><switch><g><path d="M52,83.999V21.655l21.172,21.172c1.562,1.562,4.094,1.562,5.656,0c1.562-1.562,1.562-4.095,0-5.657l-28-28 c-1.562-1.562-4.095-1.562-5.656,0l-28,28C16.391,37.951,16,38.974,16,39.999c0,1.023,0.391,2.047,1.172,2.828 c1.562,1.562,4.095,1.562,5.656,0L44,21.655v62.344c0,2.209,1.791,4,4,4S52,86.208,52,83.999z"/></g></switch></svg>