<svg xmlns="http://www.w3.org/2000/svg" xmlns:xlink="http://www.w3.org/1999/xlink" id="Layer_1" width="96" height="96" x="0" y="0" enable-background="new 0 0 96 96" version="1.1" viewBox="0 0 96 96" xml:space="preserve"><switch><g><path d="M48,4c-6.627,0-12,5.372-12,12v64c0,6.628,5.373,12,12,12s12-5.372,12-12V16C60,9.372,54.627,4,48,4z M52,80 c0,2.209-1.791,4-4,4s-4-1.791-4-4V16c0-2.209,1.791-4,4-4s4,1.791,4,4V80z M80,28c-6.627,0-12,5.372-12,12v40 c0,6.628,5.373,12,12,12s12-5.372,12-12V40C92,33.372,86.627,28,80,28z M84,80c0,2.209-1.791,4-4,4s-4-1.791-4-4V40 c0-2.209,1.791-4,4-4s4,1.791,4,4V80z M16,52C9.373,52,4,57.372,4,64v16c0,6.628,5.373,12,12,12s12-5.372,12-12V64 C28,57.372,22.627,52,16,52z M20,80c0,2.209-1.791,4-4,4s-4-1.791-4-4V64c0-2.209,1.791-4,4-4s4,1.791,4,4V80z"/></g></switch></svg>