<svg xmlns="http://www.w3.org/2000/svg" xmlns:xlink="http://www.w3.org/1999/xlink" id="Layer_1" width="96" height="96" x="0" y="0" enable-background="new 0 0 96 96" version="1.1" viewBox="0 0 96 96" xml:space="preserve"><switch><g><path d="M96,76c-8-8-12-20-16-40C76.534,18.673,65.67,4,48,4S19.465,18.673,16,36C12,56,8,68,0,76h36.697 C36.254,77.253,36,78.596,36,80c0,6.627,5.373,12,12,12s12-5.373,12-12c0-1.404-0.254-2.747-0.697-4H96z M23.845,37.568 C25.044,31.57,30.332,12,48,12s22.956,19.571,24.155,25.568c2.479,12.399,5.03,22.343,8.823,30.432H15.021 C18.814,59.911,21.365,49.967,23.845,37.568z M52,80c0,2.206-1.794,4-4,4s-4-1.794-4-4s1.794-4,4-4S52,77.794,52,80z"/></g></switch></svg>