<svg xmlns="http://www.w3.org/2000/svg" xmlns:xlink="http://www.w3.org/1999/xlink" id="Layer_1" width="96" height="96" x="0" y="0" enable-background="new 0 0 96 96" version="1.1" viewBox="0 0 96 96" xml:space="preserve"><switch><g><path d="M80,20H68v-4c0-6.63-5.37-12-12-12H40c-6.63,0-12,5.37-12,12v4H16C9.373,20,4,25.373,4,32v40c0,6.627,5.373,12,12,12h64 c6.627,0,12-5.373,12-12V32C92,25.373,86.627,20,80,20z M68,28v48H28V28H68z M36,16c0-2.21,1.79-4,4-4h16c2.21,0,4,1.79,4,4v4H36 V16z M12,72V32c0-2.21,1.79-4,4-4h4v48h-4C13.79,76,12,74.21,12,72z M84,72c0,2.21-1.79,4-4,4h-4V28h4c2.21,0,4,1.79,4,4V72z"/></g></switch></svg>