<svg xmlns="http://www.w3.org/2000/svg" xmlns:xlink="http://www.w3.org/1999/xlink" id="Layer_1" width="96" height="96" x="0" y="0" enable-background="new 0 0 96 96" version="1.1" viewBox="0 0 96 96" xml:space="preserve"><switch><g><path d="M48,4C23.7,4,4,23.699,4,48s19.7,44,44,44s44-19.699,44-44S72.3,4,48,4z M48,84c-19.882,0-36-16.118-36-36 s16.118-36,36-36s36,16.118,36,36S67.882,84,48,84z M58.627,37.17L44.484,51.312l-5.656-5.656c-1.562-1.562-4.094-1.562-5.657,0 c-1.562,1.562-1.562,4.095,0,5.658l8.484,8.481c1.562,1.562,4.096,1.562,5.657,0l16.971-16.97 c1.562-1.562,1.564-4.094,0.001-5.657C62.723,35.609,60.189,35.609,58.627,37.17z"/></g></switch></svg>