<svg xmlns="http://www.w3.org/2000/svg" xmlns:xlink="http://www.w3.org/1999/xlink" id="Layer_1" width="96" height="96" x="0" y="0" enable-background="new 0 0 96 96" version="1.1" viewBox="0 0 96 96" xml:space="preserve"><switch><g><path d="M48,4C23.7,4,4,23.699,4,48s19.7,44,44,44s44-19.699,44-44S72.3,4,48,4z M48,84c-19.882,0-36-16.118-36-36 s16.118-36,36-36s36,16.118,36,36S67.882,84,48,84z M62.143,33.859c-1.562-1.562-4.097-1.562-5.658,0L48,42.343l-8.484-8.483 c-1.562-1.562-4.096-1.562-5.658,0c-1.562,1.562-1.562,4.096,0,5.656L42.343,48l-8.485,8.484c-1.562,1.562-1.562,4.096,0,5.656 c1.562,1.562,4.096,1.562,5.658,0L48,53.657l8.484,8.483c1.562,1.562,4.096,1.562,5.658,0c1.562-1.562,1.562-4.097,0-5.656 L53.657,48l8.485-8.484C63.704,37.953,63.704,35.42,62.143,33.859z"/></g></switch></svg>