<svg xmlns="http://www.w3.org/2000/svg" xmlns:xlink="http://www.w3.org/1999/xlink" id="Layer_1" width="96" height="96" x="0" y="0" enable-background="new 0 0 96 96" version="1.1" viewBox="0 0 96 96" xml:space="preserve"><switch><g><path d="M48,4C23.699,4,4,23.7,4,48c0,24.301,19.699,44,44,44s44-19.699,44-44C92,23.7,72.301,4,48,4z M48,84 c-19.882,0-36-16.117-36-36c0-19.882,16.118-36,36-36s36,16.118,36,36C84,67.883,67.882,84,48,84z M62.828,57.172 c1.562,1.562,1.562,4.095,0,5.657C62.048,63.609,61.023,64,60,64c-1.023,0.001-2.047-0.39-2.828-1.171l-12-12 C44.422,50.079,44,49.062,44,48V24c0-2.209,1.791-4,4-4s4,1.791,4,4v22.344L62.828,57.172z"/></g></switch></svg>