<svg xmlns="http://www.w3.org/2000/svg" xmlns:xlink="http://www.w3.org/1999/xlink" id="Layer_1" width="96" height="96" x="0" y="0" enable-background="new 0 0 96 96" version="1.1" viewBox="0 0 96 96" xml:space="preserve"><switch><g><path d="M60,11.999c-15.673,0-28.998,10.02-33.942,24H24l0,0C10.746,35.999,0,46.744,0,60c0,13.255,10.746,24.001,24.001,24.001 c0.026,0,0.051-0.002,0.077-0.002H60c19.882,0,36-16.118,36-36S79.882,11.999,60,11.999z M60,75.999H24c-8.836,0-16-7.163-16-16 s7.164-16,16-16h8.298c1.942-13.566,13.599-24,27.702-24c15.464,0,28,12.536,28,28S75.464,75.999,60,75.999z"/></g></switch></svg>