<svg xmlns="http://www.w3.org/2000/svg" xmlns:xlink="http://www.w3.org/1999/xlink" id="Layer_1" width="96" height="96" x="0" y="0" enable-background="new 0 0 96 96" version="1.1" viewBox="0 0 96 96" xml:space="preserve"><switch><g><path d="M66.828,65.172c1.562,1.562,1.562,4.095,0,5.656l-12,12C54.078,83.578,53.061,84,52,84s-2.078-0.422-2.828-1.172l-12-12 c-1.562-1.562-1.562-4.095,0-5.656c1.562-1.562,4.095-1.562,5.656,0L48,70.343V44c0-2.209,1.791-4,4-4s4,1.791,4,4v26.343 l5.172-5.171C62.733,63.609,65.267,63.609,66.828,65.172z M60,8C44.327,8,31.002,18.02,26.058,32h-2.055c0,0-0.001,0-0.002,0 C10.746,32,0,42.745,0,56.001c0,13.255,10.746,24.001,24.001,24.001c0.026,0,0.051-0.002,0.077-0.002h10.951l-3.515-3.515 c-1.144-1.144-2.029-2.479-2.636-3.974c-0.068-0.17-0.133-0.34-0.193-0.512H24c-2.209,0-4.313-0.447-6.228-1.257 C12.029,68.313,8,62.627,8,56c0-8.837,7.164-16,16-16h8.298C34.24,26.434,45.896,16,60,16c15.464,0,28,12.536,28,28 c0,9.532-4.764,17.952-12.041,23.01C75.986,67.338,76,67.668,76,68c0,1.555-0.296,3.072-0.879,4.512 c-0.606,1.494-1.492,2.83-2.636,3.974l-1.948,1.948C85.278,73.928,96,60.216,96,44C96,24.118,79.882,8,60,8z"/></g></switch></svg>