<svg xmlns="http://www.w3.org/2000/svg" xmlns:xlink="http://www.w3.org/1999/xlink" id="Layer_1" width="96" height="96" x="0" y="0" enable-background="new 0 0 96 96" version="1.1" viewBox="0 0 96 96" xml:space="preserve"><switch><g><path d="M84,12H12C5.37,12,0,17.37,0,24v48c0,6.63,5.37,12,12,12h72c6.63,0,12-5.37,12-12V24C96,17.37,90.63,12,84,12z M60,20v56 H36V20H60z M8,72V24c0-2.21,1.79-4,4-4h16v56H12C9.79,76,8,74.21,8,72z M88,72c0,2.21-1.79,4-4,4H68V20h16c2.21,0,4,1.79,4,4V72z"/></g></switch></svg>