<svg xmlns="http://www.w3.org/2000/svg" xmlns:xlink="http://www.w3.org/1999/xlink" id="Layer_1" width="96" height="96" x="0" y="0" enable-background="new 0 0 96 96" version="1.1" viewBox="0 0 96 96" xml:space="preserve"><switch><g><path d="M76,32h12c2.209,0,4-1.791,4-4s-1.791-4-4-4H76c-2.21,0-4-1.79-4-4V8c0-2.209-1.791-4-4-4s-4,1.791-4,4v12 C64,26.627,69.373,32,76,32z M8,32h12c6.627,0,12-5.373,12-12V8c0-2.209-1.791-4-4-4s-4,1.791-4,4v12c0,2.21-1.79,4-4,4H8 c-2.209,0-4,1.791-4,4S5.791,32,8,32z M68,92c2.209,0,4-1.791,4-4V76c0-2.21,1.79-4,4-4h12c2.209,0,4-1.791,4-4s-1.791-4-4-4H76 c-6.627,0-12,5.373-12,12v12C64,90.209,65.791,92,68,92z M8,72h12c2.21,0,4,1.79,4,4v12c0,2.209,1.791,4,4,4s4-1.791,4-4V76 c0-6.627-5.373-12-12-12H8c-2.209,0-4,1.791-4,4S5.791,72,8,72z"/></g></switch></svg>