<svg xmlns="http://www.w3.org/2000/svg" xmlns:xlink="http://www.w3.org/1999/xlink" id="Layer_1" width="96" height="96" x="0" y="0" enable-background="new 0 0 96 96" version="1.1" viewBox="0 0 96 96" xml:space="preserve"><switch><g><path d="M52,16v16c0,6.63,5.37,12,12,12h16c6.63,0,12-5.37,12-12V16c0-6.63-5.37-12-12-12H64C57.37,4,52,9.37,52,16z M60,16 c0-2.21,1.79-4,4-4h16c2.21,0,4,1.79,4,4v16c0,2.21-1.79,4-4,4H64c-2.21,0-4-1.79-4-4V16z M4,16v64c0,6.63,5.37,12,12,12h16 c6.63,0,12-5.37,12-12V16c0-6.63-5.37-12-12-12H16C9.37,4,4,9.37,4,16z M12,16c0-2.21,1.79-4,4-4h16c2.21,0,4,1.79,4,4v64 c0,2.21-1.79,4-4,4H16c-2.21,0-4-1.79-4-4V16z M52,64v16c0,6.63,5.37,12,12,12h16c6.63,0,12-5.37,12-12V64c0-6.63-5.37-12-12-12 H64C57.37,52,52,57.37,52,64z M60,64c0-2.21,1.79-4,4-4h16c2.21,0,4,1.79,4,4v16c0,2.21-1.79,4-4,4H64c-2.21,0-4-1.79-4-4V64z"/></g></switch></svg>