<svg xmlns="http://www.w3.org/2000/svg" xmlns:xlink="http://www.w3.org/1999/xlink" id="Layer_1" width="96" height="96" x="0" y="0" enable-background="new 0 0 96 96" version="1.1" viewBox="0 0 96 96" xml:space="preserve"><switch><g><path d="M84,12H32L0,48l32,36h52c6.627,0,12-5.373,12-12V24C96,17.373,90.627,12,84,12z M88,72c0,2.206-1.794,4-4,4H35.593 L10.704,48l24.889-28H84c2.206,0,4,1.794,4,4V72z M74.828,57.172c1.562,1.562,1.562,4.095,0,5.656C74.047,63.609,73.023,64,72,64 s-2.047-0.391-2.828-1.172L60,53.657l-9.172,9.171C50.047,63.609,49.023,64,48,64s-2.047-0.391-2.828-1.172 c-1.562-1.562-1.562-4.095,0-5.656L54.343,48l-9.171-9.172c-1.562-1.562-1.562-4.095,0-5.656c1.562-1.562,4.095-1.562,5.656,0 L60,42.343l9.172-9.171c1.562-1.562,4.095-1.562,5.656,0c1.562,1.562,1.562,4.095,0,5.656L65.657,48L74.828,57.172z"/></g></switch></svg>