<svg xmlns="http://www.w3.org/2000/svg" xmlns:xlink="http://www.w3.org/1999/xlink" id="Layer_1" width="96" height="96" x="0" y="0" enable-background="new 0 0 96 96" version="1.1" viewBox="0 0 96 96" xml:space="preserve"><switch><g><path d="M88,28v56c0,6.628-5.372,12-12,12H20c-6.628,0-12-5.372-12-12V28c0-6.628,5.372-12,12-12h16v8H20c-2.209,0-4,1.791-4,4v56 c0,2.209,1.791,4,4,4h56c2.209,0,4-1.791,4-4V28c0-2.209-1.791-4-4-4H60v-8h16C82.628,16,88,21.372,88,28z M66.828,45.172 c-1.562-1.562-4.095-1.562-5.656,0L52,54.343V4.001V4c0-2.209-1.791-4-4-4s-4,1.791-4,4v50.343l-9.172-9.171 c-1.562-1.562-4.095-1.562-5.656,0c-1.562,1.562-1.562,4.095,0,5.656l16,16C45.922,67.578,46.939,68,48,68 s2.078-0.422,2.828-1.172l16-16C68.391,49.267,68.391,46.733,66.828,45.172z"/></g></switch></svg>