<svg xmlns="http://www.w3.org/2000/svg" xmlns:xlink="http://www.w3.org/1999/xlink" id="Layer_1" width="96" height="96" x="0" y="0" enable-background="new 0 0 96 96" version="1.1" viewBox="0 0 96 96" xml:space="preserve"><switch><g><path d="M48,92c-5.576,0-11.012-1.03-16.156-3.062c-4.969-1.962-9.498-4.788-13.464-8.4C10.319,73.195,5.29,63.201,4.217,52.396 c-0.218-2.198,1.387-4.157,3.586-4.376c2.198-0.219,4.157,1.387,4.375,3.585c0.877,8.836,4.993,17.011,11.589,23.019 c3.246,2.957,6.952,5.27,11.016,6.874C38.987,83.158,43.435,84,48,84c4.861,0,9.576-0.951,14.012-2.827 c2.132-0.902,4.189-2.019,6.113-3.318c1.907-1.289,3.701-2.769,5.331-4.398s3.109-3.424,4.398-5.331 c1.3-1.924,2.416-3.981,3.318-6.113C83.049,57.576,84,52.861,84,48c0-4.565-0.842-9.013-2.503-13.218 c-1.604-4.063-3.917-7.769-6.874-11.016c-6.008-6.596-14.183-10.712-23.019-11.589c-2.198-0.218-3.804-2.177-3.585-4.375 c0.219-2.199,2.177-3.804,4.376-3.586c10.806,1.073,20.8,6.104,28.142,14.163c3.612,3.966,6.438,8.495,8.4,13.464 C90.97,36.988,92,42.424,92,48c0,5.938-1.164,11.701-3.459,17.128c-1.104,2.608-2.469,5.123-4.058,7.476 c-1.573,2.329-3.381,4.52-5.371,6.509c-1.989,1.99-4.18,3.798-6.509,5.371c-2.353,1.589-4.867,2.954-7.476,4.058 C59.701,90.836,53.938,92,48,92z M50.828,45.172L17.657,12H32c2.209,0,4-1.791,4-4s-1.791-4-4-4H8C5.791,4,4,5.791,4,8v24 c0,2.209,1.791,4,4,4s4-1.791,4-4V17.657l33.172,33.171C45.953,51.609,46.977,52,48,52s2.047-0.391,2.828-1.172 C52.391,49.267,52.391,46.733,50.828,45.172z"/></g></switch></svg>