<svg xmlns="http://www.w3.org/2000/svg" xmlns:xlink="http://www.w3.org/1999/xlink" id="Layer_1" width="96" height="96" x="0" y="0" enable-background="new 0 0 96 96" version="1.1" viewBox="0 0 96 96" xml:space="preserve"><switch><g><path d="M80,4H68c-2.209,0-4,1.791-4,4C64,10.209,65.791,12,68,12h12c2.21,0,4,1.791,4,4v12c0,2.209,1.791,4,4,4s4-1.791,4-4V16 C92,9.373,86.627,4,80,4z M28,4H16C9.373,4,4,9.373,4,16v12c0,2.209,1.791,4,4,4C10.209,32,12,30.209,12,28V16 c0-2.209,1.791-4,4-4h12c2.209,0,4-1.791,4-3.999C32,5.791,30.209,4,28,4z M88,64c-2.209,0-4,1.791-4,4v12c0,2.21-1.79,4-4,4H68 c-2.209,0-4,1.791-4,4s1.791,4,4,4h12c6.627,0,12-5.373,12-12V68C92,65.791,90.209,64,88,64z M28,84H16c-2.209,0-4-1.79-4-4V68 c0-2.209-1.791-4-3.999-4c-2.21,0-4,1.791-4,4v12c0,6.627,5.373,12,12,12h12c2.209,0,4-1.791,4-4S30.209,84,28,84z"/></g></switch></svg>