<svg xmlns="http://www.w3.org/2000/svg" xmlns:xlink="http://www.w3.org/1999/xlink" id="Layer_1" width="96" height="96" x="0" y="0" enable-background="new 0 0 96 96" version="1.1" viewBox="0 0 96 96" xml:space="preserve"><switch><g><g><path d="M48,12C16,12,0,48.166,0,48.166S16,84,48,84s48-36,48-36S80,12,48,12z M48,76C26.854,76,13.503,56.118,9.003,48.148 C13.5,40.102,26.854,20,48,20c21.15,0,34.502,19.998,38.998,28C82.494,56.016,69.145,76,48,76z M48,32c-8.836,0-16,7.164-16,16 c0,8.837,7.164,16,16,16c8.837,0,16-7.163,16-16C64,39.164,56.837,32,48,32z M48,56c-4.411,0-8-3.589-8-8s3.589-8,8-8 s8,3.589,8,8S52.411,56,48,56z"/><path d="M48,12C16,12,0,48.166,0,48.166S16,84,48,84s48-36,48-36S80,12,48,12z M48,76C26.854,76,13.503,56.118,9.003,48.148 C13.5,40.102,26.854,20,48,20c21.15,0,34.502,19.998,38.998,28C82.494,56.016,69.145,76,48,76z M48,32c-8.836,0-16,7.164-16,16 c0,8.837,7.164,16,16,16c8.837,0,16-7.163,16-16C64,39.164,56.837,32,48,32z M48,56c-4.411,0-8-3.589-8-8s3.589-8,8-8 s8,3.589,8,8S52.411,56,48,56z"/></g></g></switch></svg>