<svg xmlns="http://www.w3.org/2000/svg" xmlns:xlink="http://www.w3.org/1999/xlink" id="Layer_1" width="96" height="96" x="0" y="0" enable-background="new 0 0 96 96" version="1.1" viewBox="0 0 96 96" xml:space="preserve"><switch><g><path d="M41.171,78.829c-1.562-1.562-1.562-4.095,0-5.657L66.343,48L41.171,22.829c-1.562-1.562-1.562-4.095,0-5.657 c1.562-1.562,4.095-1.562,5.657,0l28,28c1.562,1.562,1.562,4.095,0,5.658l-28,28C46.047,79.61,45.023,80,44,80 S41.952,79.61,41.171,78.829z M20,80c1.023,0,2.047-0.39,2.828-1.171l28-28c1.562-1.562,1.562-4.095,0-5.658l-28-28 c-1.562-1.562-4.095-1.562-5.657,0c-1.562,1.562-1.562,4.095,0,5.657L42.343,48L17.172,73.172c-1.562,1.562-1.562,4.095,0,5.657 C17.952,79.61,18.977,80,20,80z"/></g></switch></svg>