<svg xmlns="http://www.w3.org/2000/svg" xmlns:xlink="http://www.w3.org/1999/xlink" id="Layer_1" width="96" height="96" x="0" y="0" enable-background="new 0 0 96 96" version="1.1" viewBox="0 0 96 96" xml:space="preserve"><switch><g><path d="M64,60c0,2.209-1.791,4-4,4H36c-2.209,0-4-1.791-4-4s1.791-4,4-4h24C62.209,56,64,57.791,64,60z M88,28v56 c0,6.628-5.372,12-12,12H20c-6.628,0-12-5.372-12-12V12C8,5.372,13.372,0,20,0h40L88,28z M60,28h16.687L60,11.313V28z M80,84V36 H52V8H20c-1.441,0-2.391,0.734-2.828,1.172S16,10.559,16,12v72c0,1.441,0.734,2.391,1.172,2.828S18.559,88,20,88h56 c1.441,0,2.391-0.734,2.828-1.172S80,85.441,80,84z"/></g></switch></svg>