<svg xmlns="http://www.w3.org/2000/svg" xmlns:xlink="http://www.w3.org/1999/xlink" id="Layer_1" width="96" height="96" x="0" y="0" enable-background="new 0 0 96 96" version="1.1" viewBox="0 0 96 96" xml:space="preserve"><switch><g><path d="M88,28v56c0,6.627-5.373,12-12,12H20c-6.627,0-12-5.373-12-12V12C8,5.373,13.373,0,20,0h40L88,28z M60,28h16.687 L60,11.313V28z M80,84V36H52V8H20c-1.441,0-2.391,0.734-2.829,1.171C16.734,9.609,16,10.559,16,12v72 c0,1.441,0.734,2.391,1.171,2.828C17.609,87.266,18.559,88,20,88h56c1.441,0,2.391-0.734,2.828-1.172S80,85.441,80,84z"/></g></switch></svg>