<svg xmlns="http://www.w3.org/2000/svg" xmlns:xlink="http://www.w3.org/1999/xlink" id="Layer_1" width="96" height="96" x="0" y="0" enable-background="new 0 0 96 96" version="1.1" viewBox="0 0 96 96" xml:space="preserve"><switch><g><path d="M64,12c-12,0-24-8-36-8S8,8,8,8v48v8v24c0,2.209,1.791,4,4,4s4-1.791,4-4V61.355C19.229,60.611,23.309,60,28,60 c12,0,24,8,36,8s20-4,20-4V8C84,8,76,12,64,12z M76,58.393C72.102,59.475,68.044,60,64,60c-5.848,0-11.556-2.297-17.025-4.106 C40.832,53.861,34.527,52,28,52c-4.025,0-8.052,0.392-12,1.175V13.607C19.898,12.525,23.955,12,28,12 c5.848,0,11.556,2.297,17.025,4.106C51.168,18.139,57.473,20,64,20c4.025,0,8.052-0.392,12-1.175V58.393z"/></g></switch></svg>