<svg xmlns="http://www.w3.org/2000/svg" xmlns:xlink="http://www.w3.org/1999/xlink" id="Layer_1" width="96" height="96" x="0" y="0" enable-background="new 0 0 96 96" version="1.1" viewBox="0 0 96 96" xml:space="preserve"><switch><g><path d="M49.689,4.029C49.13,4.01,48.57,4,48,4s-1.13,0.01-1.689,0.029C22.79,4.92,4,24.27,4,48s18.79,43.08,42.311,43.971 C46.87,91.99,47.43,92,48,92s1.13-0.01,1.689-0.029C73.21,91.08,92,71.73,92,48S73.21,4.92,49.689,4.029z M83.77,44h-15.91 C66.95,30.6,61.589,19.91,57.12,13.16C71.33,16.88,82.13,29.061,83.77,44z M48.01,14.18C51.939,19.3,58.71,29.98,59.84,44H36.16 C37.29,30.04,44.08,19.32,48.01,14.18z M59.84,52c-1.13,13.96-7.91,24.68-11.85,29.82C44.061,76.7,37.29,66.02,36.16,52H59.84z M38.88,13.16C34.41,19.91,29.05,30.6,28.141,44H12.23C13.87,29.061,24.67,16.88,38.88,13.16z M12.23,52h15.91 C29.05,65.391,34.4,76.08,38.87,82.83C24.66,79.12,13.87,66.939,12.23,52z M57.13,82.83C61.6,76.08,66.95,65.391,67.859,52h15.91 C82.13,66.939,71.34,79.12,57.13,82.83z"/></g></switch></svg>