<svg xmlns="http://www.w3.org/2000/svg" xmlns:xlink="http://www.w3.org/1999/xlink" id="Layer_1" width="96" height="96" x="0" y="0" enable-background="new 0 0 96 96" version="1.1" viewBox="0 0 96 96" xml:space="preserve"><switch><g><path d="M80,4H16C9.37,4,4,9.37,4,16v64c0,6.63,5.37,12,12,12h64c6.63,0,12-5.37,12-12V16C92,9.37,86.63,4,80,4z M84,16v28H52V12 h28C82.21,12,84,13.79,84,16z M16,12h28v32H12V16C12,13.79,13.79,12,16,12z M12,80V52h32v32H16C13.79,84,12,82.21,12,80z M80,84 H52V52h32v28C84,82.21,82.21,84,80,84z"/></g></switch></svg>