<svg xmlns="http://www.w3.org/2000/svg" xmlns:xlink="http://www.w3.org/1999/xlink" id="Layer_1" width="96" height="96" x="0" y="0" enable-background="new 0 0 96 96" version="1.1" viewBox="0 0 96 96" xml:space="preserve"><switch><g><path d="M87.598,14.463c-9.373-9.373-24.568-9.373-33.939,0L48,20.12l-5.658-5.655c-9.373-9.373-24.568-9.373-33.939,0 c-9.373,9.372-9.373,24.567,0,33.94l5.656,5.654L48,88l33.941-33.941l5.656-5.654C96.971,39.032,96.971,23.836,87.598,14.463z M70.627,54.061L48,76.688L25.373,54.061L14.061,42.749c-6.248-6.248-6.248-16.379,0-22.629c6.25-6.248,16.379-6.248,22.627,0 L48,31.434L59.314,20.12c6.248-6.248,16.379-6.248,22.627,0c6.248,6.25,6.248,16.379,0,22.629L70.627,54.061z"/></g></switch></svg>