<svg xmlns="http://www.w3.org/2000/svg" xmlns:xlink="http://www.w3.org/1999/xlink" id="Layer_1" width="96" height="96" x="0" y="0" enable-background="new 0 0 96 96" version="1.1" viewBox="0 0 96 96" xml:space="preserve"><switch><g><path d="M79.113,16.888c-17.184-17.183-45.043-17.183-62.226,0s-17.183,45.043,0,62.226s45.042,17.183,62.226,0 C96.296,61.931,96.296,34.071,79.113,16.888z M70.472,19.872l-11.44,11.441c-6.666-4.417-15.396-4.417-22.062,0L25.528,19.872 C38.631,9.377,57.369,9.377,70.472,19.872z M60,48.001c0,6.627-5.373,12-12,12s-12-5.373-12-12c0-6.628,5.373-12,12-12 S60,41.373,60,48.001z M19.871,25.529L31.312,36.97c-4.417,6.666-4.417,15.396,0,22.062l-11.441,11.44 C9.376,57.369,9.376,38.632,19.871,25.529z M25.528,76.13l11.441-11.441c6.666,4.416,15.396,4.416,22.062,0l11.44,11.441 C57.369,86.624,38.631,86.624,25.528,76.13z M76.129,70.472l-11.441-11.44c4.416-6.666,4.416-15.396,0-22.062l11.441-11.441 C86.623,38.632,86.623,57.369,76.129,70.472z"/></g></switch></svg>