<svg xmlns="http://www.w3.org/2000/svg" xmlns:xlink="http://www.w3.org/1999/xlink" id="Layer_1" width="96" height="96" x="0" y="0" enable-background="new 0 0 96 96" version="1.1" viewBox="0 0 96 96" xml:space="preserve"><switch><g><path d="M80,4H16C9.373,4,4,9.373,4,16v64c0,6.627,5.373,12,12,12h64c6.627,0,12-5.373,12-12V16C92,9.373,86.627,4,80,4z M84,80 c0,2.21-1.79,4-4,4H29.657L64,49.657l20,19.999V80z M84,58.344l-20-20L18.343,84H16c-2.21,0-4-1.79-4-4V16c0-2.21,1.79-4,4-4h64 c2.21,0,4,1.79,4,4V58.344z M32,20c-6.627,0-12,5.373-12,12s5.373,12,12,12s12-5.373,12-12S38.627,20,32,20z M32,36 c-2.209,0-4-1.791-4-4s1.791-4,4-4s4,1.791,4,4S34.209,36,32,36z"/></g></switch></svg>