<svg xmlns="http://www.w3.org/2000/svg" xmlns:xlink="http://www.w3.org/1999/xlink" id="Layer_1" width="96" height="96" x="0" y="0" enable-background="new 0 0 96 96" version="1.1" viewBox="0 0 96 96" xml:space="preserve"><switch><g><path d="M28,48c0-2.208-1.791-4-4-4H8c-2.21,0-4,1.792-4,4c0,2.209,1.791,4,4,4h16C26.209,52,28,50.209,28,48z M88,44H72 c-2.209,0-4,1.792-4,4c0,2.209,1.791,4,4,4h16c2.209,0,4-1.791,4-4C92,45.792,90.209,44,88,44z M48,4c-2.208,0-4,1.791-4,4v16 c0,2.208,1.792,4,4,4c2.209,0,4-1.792,4-4V8C52,5.791,50.209,4,48,4z M48,68c-2.208,0-4,1.791-4,4v16c0,2.209,1.792,4,4,4 c2.209,0,4-1.791,4-4V72C52,69.791,50.209,68,48,68z M28.2,62.143L16.889,73.455c-1.562,1.562-1.562,4.096,0,5.658 c1.561,1.562,4.094,1.562,5.656,0l11.313-11.314c1.562-1.561,1.562-4.094,0-5.656C32.296,60.581,29.763,60.58,28.2,62.143z M67.8,33.858l11.312-11.312c1.562-1.562,1.562-4.095,0-5.657c-1.561-1.562-4.094-1.562-5.654,0L62.143,28.201 c-1.562,1.562-1.562,4.095,0,5.657S66.236,35.42,67.8,33.858z M22.544,16.887c-1.561-1.562-4.094-1.562-5.656,0 c-1.562,1.562-1.562,4.095,0,5.657L28.2,33.858c1.562,1.562,4.096,1.562,5.658,0s1.562-4.095,0-5.657L22.544,16.887z M67.8,62.143 c-1.562-1.562-4.096-1.562-5.657,0c-1.562,1.562-1.562,4.094,0,5.656l11.313,11.314c1.562,1.562,4.094,1.562,5.655,0 c1.561-1.562,1.561-4.096,0-5.658L67.8,62.143z"/></g></switch></svg>