<svg xmlns="http://www.w3.org/2000/svg" xmlns:xlink="http://www.w3.org/1999/xlink" id="Layer_1" width="96" height="96" x="0" y="0" enable-background="new 0 0 96 96" version="1.1" viewBox="0 0 96 96" xml:space="preserve"><switch><g><path d="M48,4C23.7,4,4,23.7,4,48c0,24.301,19.7,44,44,44c24.301,0,44-19.699,44-44C92,23.7,72.301,4,48,4z M52,83.773V72 c0-2.209-1.791-4-4-4c-2.208,0-4,1.791-4,4v11.773C27.315,81.928,14.072,68.686,12.228,52H24c2.209,0,4-1.791,4-4 c0-2.208-1.791-4-4-4H12.228C14.072,27.315,27.315,14.072,44,12.228V24c0,2.208,1.792,4,4,4c2.209,0,4-1.792,4-4V12.228 C68.686,14.072,81.928,27.315,83.773,44H72c-2.209,0-4,1.792-4,4c0,2.209,1.791,4,4,4h11.773 C81.928,68.686,68.686,81.928,52,83.773z"/></g></switch></svg>