<svg xmlns="http://www.w3.org/2000/svg" xmlns:xlink="http://www.w3.org/1999/xlink" id="Layer_1" width="96" height="96" x="0" y="0" enable-background="new 0 0 96 96" version="1.1" viewBox="0 0 96 96" xml:space="preserve"><switch><g><path d="M80,44h-8V28C72,14.745,61.255,4,48,4S24,14.745,24,28v16h-8C9.37,44,4,49.37,4,56v24c0,6.63,5.37,12,12,12h64 c6.63,0,12-5.37,12-12V56C92,49.37,86.63,44,80,44z M32,28c0-8.836,7.164-16,16-16s16,7.164,16,16v16H32V28z M84,80 c0,2.21-1.79,4-4,4H16c-2.21,0-4-1.79-4-4V56c0-2.21,1.79-4,4-4h64c2.21,0,4,1.79,4,4V80z"/></g></switch></svg>