<svg xmlns="http://www.w3.org/2000/svg" xmlns:xlink="http://www.w3.org/1999/xlink" id="Layer_1" width="96" height="96" x="0" y="0" enable-background="new 0 0 96 96" version="1.1" viewBox="0 0 96 96" xml:space="preserve"><switch><g><path d="M28,8c0,2.21-1.79,4-4,4h-8c-2.21,0-4,1.79-4,4v8c0,2.21-1.79,4-4,4s-4-1.79-4-4v-8C4,9.37,9.37,4,16,4h8 C26.21,4,28,5.79,28,8z M12,40v16c0,2.21-1.79,4-4,4s-4-1.79-4-4V40c0-2.21,1.79-4,4-4S12,37.79,12,40z M28,88c0,2.21-1.79,4-4,4 h-8C9.37,92,4,86.63,4,80v-8c0-2.21,1.79-4,4-4s4,1.79,4,4v8c0,2.21,1.79,4,4,4h8C26.21,84,28,85.79,28,88z M60,88 c0,2.21-1.79,4-4,4H40c-2.21,0-4-1.79-4-4s1.79-4,4-4h16C58.21,84,60,85.79,60,88z M92,72v8c0,6.63-5.37,12-12,12h-8 c-2.21,0-4-1.79-4-4s1.79-4,4-4h8c2.21,0,4-1.79,4-4v-8c0-2.21,1.79-4,4-4S92,69.79,92,72z M92,40v16c0,2.21-1.79,4-4,4 s-4-1.79-4-4V40c0-2.21,1.79-4,4-4S92,37.79,92,40z M92,16v8c0,2.21-1.79,4-4,4s-4-1.79-4-4v-8c0-2.21-1.79-4-4-4h-8 c-2.21,0-4-1.79-4-4s1.79-4,4-4h8C86.63,4,92,9.37,92,16z M60,8c0,2.21-1.79,4-4,4H40c-2.21,0-4-1.79-4-4s1.79-4,4-4h16 C58.21,4,60,5.79,60,8z M64,44H32c-2.209,0-4,1.791-4,4s1.791,4,4,4h32c2.209,0,4-1.791,4-4S66.209,44,64,44z"/></g></switch></svg>