<svg xmlns="http://www.w3.org/2000/svg" xmlns:xlink="http://www.w3.org/1999/xlink" id="Layer_1" width="96" height="96" x="0" y="0" enable-background="new 0 0 96 96" version="1.1" viewBox="0 0 96 96" xml:space="preserve"><switch><g><path d="M12,28h72c2.209,0,4-1.791,4-4s-1.791-4-4-4H12c-2.209,0-4,1.791-4,4S9.791,28,12,28z M84,44H12c-2.209,0-4,1.791-4,4 s1.791,4,4,4h72c2.209,0,4-1.791,4-4S86.209,44,84,44z M84,68H12c-2.209,0-4,1.791-4,4s1.791,4,4,4h72c2.209,0,4-1.791,4-4 S86.209,68,84,68z"/></g></switch></svg>