<svg xmlns="http://www.w3.org/2000/svg" xmlns:xlink="http://www.w3.org/1999/xlink" id="Layer_1" width="96" height="96" x="0" y="0" enable-background="new 0 0 96 96" version="1.1" viewBox="0 0 96 96" xml:space="preserve"><switch><g><path d="M80,40v8c0,16.318-12.215,29.783-28,31.752V88h12c2.209,0,4,1.791,4,4s-1.791,4-4,4H32c-2.209,0-4-1.791-4-4s1.791-4,4-4 h12v-8.248C28.215,77.783,16,64.318,16,48v-8c0-2.209,1.791-4,4-4s4,1.791,4,4v8c0,13.255,10.745,24,24,24s24-10.745,24-24v-8 c0-2.209,1.791-4,4-4S80,37.791,80,40z M48,0c-8.837,0-16,7.163-16,16v32c0,8.837,7.163,16,16,16s16-7.163,16-16V16 C64,7.163,56.837,0,48,0z M48,56c-4.418,0-8-3.582-8-8V16c0-4.418,3.582-8,8-8s8,3.582,8,8v32C56,52.418,52.418,56,48,56z"/></g></switch></svg>