<svg xmlns="http://www.w3.org/2000/svg" xmlns:xlink="http://www.w3.org/1999/xlink" id="Layer_1" width="96" height="96" x="0" y="0" enable-background="new 0 0 96 96" version="1.1" viewBox="0 0 96 96" xml:space="preserve"><switch><g><path d="M40.001,7.969c-2.21,0-4,1.789-4,4V30.31L10.847,5.168c-1.57-1.561-4.115-1.561-5.676,0c-1.562,1.559-1.562,4.115,0,5.676 l25.141,25.155h-18.34c-2.211,0-4,1.79-4,4s1.789,4,4,4h28c2.209,0,4.029-1.82,4.029-4.029V11.969 C44.001,9.758,42.211,7.969,40.001,7.969z M90.829,85.155L65.688,59.999h18.341c2.209,0,4-1.79,4-4s-1.791-4-4-4H56.028 c-2.211,0-4.027,1.822-4.027,4.032v28c0,2.21,1.79,4,4,4s4-1.79,4-4V65.69l25.155,25.141c1.568,1.562,4.113,1.562,5.673,0 C92.391,89.271,92.391,86.716,90.829,85.155z"/></g></switch></svg>