<svg xmlns="http://www.w3.org/2000/svg" xmlns:xlink="http://www.w3.org/1999/xlink" id="Layer_1" width="96" height="96" x="0" y="0" enable-background="new 0 0 96 96" version="1.1" viewBox="0 0 96 96" xml:space="preserve"><switch><g><path d="M80,8H16C9.37,8,4,13.37,4,20v40c0,6.63,5.37,12,12,12h28v8H32c-2.209,0-4,1.791-4,4s1.791,4,4,4h32c2.209,0,4-1.791,4-4 s-1.791-4-4-4H52v-8h28c6.63,0,12-5.37,12-12V20C92,13.37,86.63,8,80,8z M84,60c0,2.21-1.79,4-4,4H16c-2.21,0-4-1.79-4-4V20 c0-2.21,1.79-4,4-4h64c2.21,0,4,1.79,4,4V60z"/></g></switch></svg>