<svg xmlns="http://www.w3.org/2000/svg" xmlns:xlink="http://www.w3.org/1999/xlink" id="Layer_1" width="96" height="96" x="0" y="0" enable-background="new 0 0 96 96" version="1.1" viewBox="0 0 96 96" xml:space="preserve"><switch><g><path d="M94.828,45.171L80.688,31.029c-1.562-1.562-4.096-1.562-5.658,0c-1.562,1.562-1.562,4.096,0,5.657L82.344,44H52V13.658 l7.312,7.312c1.562,1.562,4.096,1.562,5.658,0c1.562-1.562,1.562-4.095,0-5.657L50.828,1.171c-1.562-1.562-4.096-1.562-5.657,0 L31.029,15.314c-1.562,1.562-1.562,4.096,0,5.657c1.562,1.562,4.095,1.562,5.656,0L44,13.658V44H13.657l7.313-7.313 c1.562-1.562,1.562-4.095,0-5.657c-1.562-1.562-4.096-1.562-5.658,0L1.171,45.171c-1.562,1.562-1.562,4.094,0,5.657l14.144,14.143 c1.562,1.562,4.095,1.562,5.656,0c1.562-1.561,1.562-4.094,0-5.656L13.657,52H44v30.344l-7.312-7.314 c-1.562-1.561-4.096-1.561-5.658,0c-1.562,1.562-1.562,4.096,0,5.658L45.172,94.83c1.562,1.561,4.096,1.561,5.657,0l14.144-14.143 c1.562-1.562,1.562-4.096,0-5.658c-1.562-1.561-4.096-1.561-5.658,0L52,82.344V52h30.343l-7.313,7.312 c-1.562,1.562-1.562,4.096,0,5.658c1.562,1.562,4.096,1.562,5.658,0l14.142-14.143C96.391,49.268,96.391,46.733,94.828,45.171z"/></g></switch></svg>