<svg xmlns="http://www.w3.org/2000/svg" xmlns:xlink="http://www.w3.org/1999/xlink" id="Layer_1" width="96" height="96" x="0" y="0" enable-background="new 0 0 96 96" version="1.1" viewBox="0 0 96 96" xml:space="preserve"><switch><g><path d="M16,32C9.37,32,4,37.537,4,44.167V52c0,6.63,5.37,12,12,12h8l20,20V12L24,32H16z M29.656,37.657l6.343-6.5L36,31v33.688 l-6.343-6.345L27.312,56H24h-8c-2.206,0-4-1.794-4-4v-7.833C12,41.908,13.832,40,16,40h8h3.312L29.656,37.657z M86.828,57.172 c1.562,1.562,1.562,4.095,0,5.656C86.047,63.609,85.023,64,84,64s-2.047-0.391-2.828-1.172L72,53.657l-9.172,9.171 C62.047,63.609,61.023,64,60,64s-2.047-0.391-2.828-1.172c-1.562-1.562-1.562-4.095,0-5.656L66.343,48l-9.171-9.172 c-1.562-1.562-1.562-4.095,0-5.656c1.562-1.562,4.095-1.562,5.656,0L72,42.343l9.172-9.171c1.562-1.562,4.095-1.562,5.656,0 c1.562,1.562,1.562,4.095,0,5.656L77.657,48L86.828,57.172z"/></g></switch></svg>