<svg xmlns="http://www.w3.org/2000/svg" xmlns:xlink="http://www.w3.org/1999/xlink" id="Layer_1" width="96" height="96" x="0" y="0" enable-background="new 0 0 96 96" version="1.1" viewBox="0 0 96 96" xml:space="preserve"><switch><g><path d="M88,48c-2.209,0-4,1.791-4,4v28c0,2.21-1.79,4-4,4H16c-2.21,0-4-1.79-4-4V16c0-2.21,1.79-4,4-4h28c2.209,0,4-1.791,4-4 s-1.791-4-4-4H16C9.373,4,4,9.373,4,16v64c0,6.627,5.373,12,12,12h64c6.627,0,12-5.373,12-12V52C92,49.791,90.209,48,88,48z M92,8 v24c0,2.209-1.791,4-4,4s-4-1.791-4-4V17.656l-32.771,32.77c-1.561,1.562-4.094,1.562-5.655,0c-1.562-1.561-1.562-4.094,0-5.656 L78.343,12H64c-2.209,0-4-1.791-4-4s1.791-4,4-4h24C90.209,4,92,5.791,92,8z"/></g></switch></svg>