<svg xmlns="http://www.w3.org/2000/svg" xmlns:xlink="http://www.w3.org/1999/xlink" id="Layer_1" width="96" height="96" x="0" y="0" enable-background="new 0 0 96 96" version="1.1" viewBox="0 0 96 96" xml:space="preserve"><switch><g><path d="M56,88H20c-2.21,0-4-1.79-4-4v-8V28V16.698c-4.658,1.65-8,6.08-8,11.303v56c0,6.627,5.373,12,12,12h40 c5.223,0,9.652-3.343,11.303-8H60H56z M76,0H36c-6.627,0-12,5.374-12,12v56c0,6.628,5.373,12.001,12,12.001h40 c6.627,0,12-5.373,12-12.001V12C88,5.374,82.627,0,76,0z M80,68c0,2.211-1.79,4.001-4,4.001H36c-2.209,0-4-1.79-4-4.001V12 c0-2.21,1.791-4,4-4h40c2.21,0,4,1.79,4,4V68z"/></g></switch></svg>