<svg xmlns="http://www.w3.org/2000/svg" xmlns:xlink="http://www.w3.org/1999/xlink" id="Layer_1" width="96" height="96" x="0" y="0" enable-background="new 0 0 96 96" version="1.1" viewBox="0 0 96 96" xml:space="preserve"><switch><g><path d="M48,4C23.7,4,4,23.7,4,48c0,24.301,19.7,44,44,44c24.301,0,44-19.699,44-44C92,23.7,72.301,4,48,4z M83.773,44H52V12.228 C68.686,14.072,81.928,27.315,83.773,44z M48,84c-19.882,0-36-16.118-36-36c0-18.53,14.001-33.783,32-35.772V52h39.774 C81.783,69.998,66.529,84,48,84z"/></g></switch></svg>