<svg xmlns="http://www.w3.org/2000/svg" xmlns:xlink="http://www.w3.org/1999/xlink" id="Layer_1" width="96" height="96" x="0" y="0" enable-background="new 0 0 96 96" version="1.1" viewBox="0 0 96 96" xml:space="preserve"><switch><g><path d="M48,92c-5.398,0-10.637-1.059-15.571-3.145c-2.371-1.003-4.657-2.244-6.796-3.689c-2.117-1.43-4.108-3.072-5.917-4.882 c-1.81-1.809-3.452-3.8-4.882-5.917c-1.445-2.139-2.687-4.425-3.688-6.796C9.059,62.637,8,57.398,8,52s1.059-10.637,3.146-15.571 c1.002-2.371,2.243-4.657,3.688-6.796c1.43-2.117,3.072-4.108,4.882-5.917c1.562-1.562,4.095-1.562,5.657,0 c1.562,1.562,1.562,4.095,0,5.657c-2.94,2.939-5.248,6.362-6.86,10.172C16.846,43.488,16,47.678,16,52 c0,4.321,0.846,8.512,2.513,12.455c1.612,3.81,3.92,7.232,6.86,10.172c2.939,2.94,6.362,5.248,10.172,6.86 C39.488,83.154,43.679,84,48,84s8.512-0.846,12.455-2.513c3.81-1.612,7.232-3.92,10.172-6.86c2.94-2.939,5.248-6.362,6.86-10.172 C79.154,60.512,80,56.321,80,52c0-4.322-0.846-8.512-2.513-12.455c-1.612-3.81-3.92-7.232-6.86-10.173 c-1.562-1.562-1.562-4.095,0-5.656c1.562-1.562,4.095-1.562,5.657,0c1.81,1.809,3.452,3.8,4.882,5.917 c1.445,2.139,2.686,4.425,3.688,6.796C86.941,41.363,88,46.602,88,52s-1.059,10.637-3.146,15.571 c-1.003,2.371-2.243,4.657-3.688,6.796c-1.43,2.117-3.072,4.108-4.882,5.917c-1.809,1.81-3.8,3.452-5.917,4.882 c-2.139,1.445-4.425,2.687-6.796,3.689C58.637,90.941,53.398,92,48,92z M52,48V8c0-2.209-1.791-4-4-4s-4,1.791-4,4v40 c0,2.209,1.791,4,4,4S52,50.209,52,48z"/></g></switch></svg>