<svg xmlns="http://www.w3.org/2000/svg" xmlns:xlink="http://www.w3.org/1999/xlink" id="Layer_1" width="96" height="96" x="0" y="0" enable-background="new 0 0 96 96" version="1.1" viewBox="0 0 96 96" xml:space="preserve"><switch><g><path d="M92,16v24c0,2.209-1.791,4-4,4H64c-2.209,0-4-1.791-4-4s1.791-4,4-4h13.489c-5.425-5.288-9.7-9.467-10.861-10.627 c-3.057-3.057-6.617-5.422-10.584-7.03C52.21,16.788,48.158,16,44,16s-8.21,0.788-12.044,2.343 c-3.967,1.608-7.527,3.974-10.584,7.03c-3.056,3.056-5.421,6.616-7.029,10.583C12.788,39.79,12,43.842,12,48 s0.788,8.21,2.343,12.044c1.608,3.967,3.974,7.527,7.029,10.583c3.057,3.057,6.617,5.422,10.584,7.03 C35.79,79.212,39.842,80,44,80s8.21-0.788,12.044-2.343c3.967-1.608,7.527-3.974,10.584-7.03c1.716-1.717,3.233-3.619,4.51-5.654 c1.24-1.979,2.263-4.1,3.04-6.303c0.734-2.084,3.02-3.177,5.103-2.442c2.083,0.735,3.177,3.02,2.442,5.103 c-0.974,2.76-2.254,5.414-3.807,7.891c-1.596,2.546-3.49,4.922-5.632,7.063c-3.817,3.817-8.27,6.773-13.234,8.786 c-2.386,0.968-4.88,1.707-7.413,2.197C49.128,87.754,46.559,88,44,88s-5.128-0.246-7.637-0.732 c-2.533-0.49-5.027-1.229-7.413-2.197c-4.965-2.013-9.417-4.969-13.234-8.786S8.942,68.015,6.93,63.05 c-0.968-2.386-1.707-4.88-2.198-7.413C4.246,53.127,4,50.559,4,48s0.246-5.127,0.731-7.637c0.491-2.533,1.23-5.027,2.198-7.413 c2.013-4.965,4.969-9.417,8.786-13.234s8.27-6.773,13.234-8.786c2.386-0.968,4.88-1.707,7.413-2.197C38.872,8.246,41.441,8,44,8 s5.128,0.246,7.637,0.732c2.533,0.49,5.027,1.229,7.413,2.197c4.965,2.013,9.417,4.969,13.234,8.786 C73.479,20.91,78.157,25.479,84,31.175V16c0-2.209,1.791-4,4-4S92,13.791,92,16z"/></g></switch></svg>