<svg xmlns="http://www.w3.org/2000/svg" xmlns:xlink="http://www.w3.org/1999/xlink" id="Layer_1" width="96" height="96" x="0" y="0" enable-background="new 0 0 96 96" version="1.1" viewBox="0 0 96 96" xml:space="preserve"><switch><g><path d="M96,16v24c0,2.209-1.791,4-4,4H68c-2.209,0-4-1.791-4-4s1.791-4,4-4h13.489c-5.383-5.247-9.634-9.4-10.834-10.6 c-0.01-0.01-0.019-0.019-0.027-0.027c-3.057-3.057-6.617-5.422-10.584-7.03C56.21,16.788,52.158,16,48,16 s-8.21,0.788-12.044,2.343c-3.967,1.608-7.527,3.974-10.584,7.03c-0.268,0.268-0.532,0.54-0.79,0.817 c-2.56,2.743-4.589,5.863-6.044,9.296c-0.223,0.627-0.501,1.234-0.723,1.863c-0.742,2.071-3.02,3.155-5.096,2.423 c-2.072-0.731-3.164-2.995-2.453-5.068c0.303-0.875,0.644-1.739,1.013-2.589c0.798-1.847,1.737-3.634,2.805-5.336 c1.346-2.148,2.905-4.176,4.646-6.043c0.322-0.346,0.65-0.687,0.985-1.021c3.817-3.817,8.27-6.773,13.234-8.786 c2.386-0.968,4.88-1.707,7.413-2.197C42.872,8.246,45.441,8,48,8s5.128,0.246,7.637,0.732c2.533,0.49,5.027,1.229,7.413,2.197 c4.965,2.013,9.417,4.969,13.234,8.786l0.059,0.059c1.282,1.278,5.905,5.794,11.657,11.4V16c0-2.209,1.791-4,4-4S96,13.791,96,16z M4,84c2.209,0,4-1.791,4-4V64.825c5.752,5.606,10.375,10.122,11.657,11.4l0.059,0.059c3.817,3.817,8.27,6.773,13.234,8.786 c2.386,0.968,4.88,1.707,7.413,2.197C42.872,87.754,45.441,88,48,88c5.145,0,10.282-0.996,15.05-2.93 c4.965-2.013,9.417-4.969,13.234-8.786c0.335-0.334,0.663-0.675,0.985-1.021c1.741-1.867,3.301-3.895,4.646-6.043 c1.067-1.702,2.007-3.489,2.805-5.336c0.369-0.85,0.71-1.714,1.013-2.589c0.711-2.073-0.381-4.337-2.453-5.068 c-2.076-0.732-4.354,0.352-5.096,2.423c-0.222,0.629-0.5,1.236-0.723,1.863c-3.276,7.729-9.641,13.989-17.418,17.144 C56.21,79.212,52.158,80,48,80s-8.21-0.788-12.044-2.343c-3.967-1.608-7.527-3.974-10.584-7.03 c-0.009-0.009-0.018-0.018-0.027-0.027c-1.2-1.199-5.451-5.353-10.834-10.6H28c2.209,0,4-1.791,4-4s-1.791-4-4-4H4 c-2.209,0-4,1.791-4,4v24C0,82.209,1.791,84,4,84z"/></g></switch></svg>