<svg xmlns="http://www.w3.org/2000/svg" xmlns:xlink="http://www.w3.org/1999/xlink" id="Layer_1" width="96" height="96" x="0" y="0" enable-background="new 0 0 96 96" version="1.1" viewBox="0 0 96 96" xml:space="preserve"><switch><g><path d="M56,36H17.656l18.628-18.627c1.562-1.562,1.562-4.095,0-5.657c-1.562-1.562-4.095-1.562-5.657,0L5.172,37.171 c-1.562,1.562-1.562,4.096,0,5.657l25.455,25.456c1.562,1.562,4.096,1.562,5.657,0s1.562-4.095,0-5.657L17.658,44H56 c15.464,0,28,12.536,28,28v4c0,2.209,1.791,4,4,4s4-1.791,4-4v-4C92,52.117,75.882,36,56,36z"/></g></switch></svg>