<svg xmlns="http://www.w3.org/2000/svg" xmlns:xlink="http://www.w3.org/1999/xlink" id="Layer_1" width="96" height="96" x="0" y="0" enable-background="new 0 0 96 96" version="1.1" viewBox="0 0 96 96" xml:space="preserve"><switch><g><path d="M48,80c-1.024,0-2.047-0.391-2.829-1.172l-28-28c-1.562-1.562-1.562-4.094,0-5.656l28-28c1.562-1.562,4.095-1.562,5.657,0 c1.562,1.562,1.562,4.095,0,5.657L25.657,48l25.171,25.172c1.562,1.562,1.562,4.095,0,5.656C50.048,79.609,49.023,80,48,80z M74.828,78.828c1.562-1.562,1.562-4.094,0-5.656L49.657,48l25.171-25.171c1.562-1.562,1.562-4.095,0-5.657 c-1.562-1.562-4.095-1.562-5.656,0l-28,28c-1.562,1.562-1.562,4.095,0,5.656l28,28C69.953,79.609,70.977,80,72,80 S74.047,79.609,74.828,78.828z"/></g></switch></svg>