<svg xmlns="http://www.w3.org/2000/svg" xmlns:xlink="http://www.w3.org/1999/xlink" id="Layer_1" width="96" height="96" x="0" y="0" enable-background="new 0 0 96 96" version="1.1" viewBox="0 0 96 96" xml:space="preserve"><switch><g><path d="M72,56c-4.812,0-9.12,2.137-12.055,5.501L39.643,51.35C39.873,50.27,40,49.148,40,48s-0.127-2.27-0.357-3.35 l20.303-10.151C62.879,37.864,67.188,40,72,40c8.836,0,16-7.164,16-16S80.836,8,72,8s-16,7.164-16,16 c0,1.148,0.127,2.27,0.357,3.35L36.055,37.501C33.121,34.136,28.814,32,24,32c-8.836,0-16,7.164-16,16s7.164,16,16,16 c4.814,0,9.12-2.137,12.055-5.501L56.357,68.65C56.127,69.73,56,70.852,56,72c0,8.836,7.164,16,16,16s16-7.164,16-16 S80.836,56,72,56z M72,16c4.418,0,8,3.582,8,8s-3.582,8-8,8s-8-3.582-8-8S67.582,16,72,16z M24,56c-4.418,0-8-3.582-8-8 s3.582-8,8-8s8,3.582,8,8S28.418,56,24,56z M72,80c-4.418,0-8-3.582-8-8s3.582-8,8-8s8,3.582,8,8S76.418,80,72,80z"/></g></switch></svg>