<svg xmlns="http://www.w3.org/2000/svg" xmlns:xlink="http://www.w3.org/1999/xlink" id="Layer_1" width="96" height="96" x="0" y="0" enable-background="new 0 0 96 96" version="1.1" viewBox="0 0 96 96" xml:space="preserve"><switch><g><path d="M53.15,33.143C49.925,37.229,48,42.39,48,48c0,5.625-1.451,10.91-4,15.504c-1.402,2.527-3.137,4.846-5.146,6.895 C33.047,76.323,24.952,80,16,80H8c-2.209,0-4-1.791-4-4s1.791-4,4-4h8c7.645,0,14.455-3.574,18.85-9.143 C38.075,58.771,40,53.61,40,48c0-5.625,1.451-10.91,4-15.504c1.402-2.527,3.137-4.846,5.146-6.895C54.953,19.677,63.048,16,72,16 h6.343l-9.171-9.172c-1.562-1.562-1.562-4.095,0-5.656c1.562-1.562,4.095-1.562,5.656,0l16,16c1.562,1.562,1.562,4.095,0,5.656 l-16,16C74.047,39.609,73.023,40,72,40s-2.047-0.391-2.828-1.172c-1.562-1.562-1.562-4.095,0-5.656L78.343,24H72 C64.355,24,57.545,27.574,53.15,33.143z M8,24h8c7.645,0,14.455,3.574,18.85,9.143c1.068-2.667,2.415-5.193,4.005-7.541 C33.047,19.677,24.952,16,16,16H8c-2.209,0-4,1.791-4,4S5.791,24,8,24z M74.828,57.172c-1.562-1.562-4.095-1.562-5.656,0 c-1.562,1.562-1.562,4.095,0,5.656L78.343,72H72c-7.645,0-14.455-3.574-18.85-9.143c-1.068,2.667-2.415,5.193-4.005,7.541 C54.953,76.323,63.048,80,72,80h6.343l-9.171,9.172c-1.562,1.562-1.562,4.095,0,5.656C69.953,95.609,70.977,96,72,96 s2.047-0.391,2.828-1.172l16-16c1.562-1.562,1.562-4.095,0-5.656L74.828,57.172z"/></g></switch></svg>