<svg xmlns="http://www.w3.org/2000/svg" xmlns:xlink="http://www.w3.org/1999/xlink" id="Layer_1" width="96" height="96" x="0" y="0" enable-background="new 0 0 96 96" version="1.1" viewBox="0 0 96 96" xml:space="preserve"><switch><g><path d="M58.132,66.734c-6.259-3.672-14.028-3.658-20.276,0.031c-1.898,1.125-2.532,3.576-1.408,5.48 c1.123,1.9,3.576,2.531,5.478,1.408c3.747-2.215,8.406-2.221,12.16-0.02c1.604,0.939,3.595,0.637,4.851-0.619 c0.236-0.236,0.446-0.506,0.623-0.809C60.677,70.303,60.038,67.852,58.132,66.734z M20.149,49.93 c-1.715,1.398-1.959,3.922-0.559,5.631c1.4,1.707,3.92,1.957,5.629,0.559C38.419,45.3,57.582,45.3,70.783,56.117 c1.604,1.312,3.924,1.174,5.359-0.264c0.094-0.094,0.185-0.191,0.27-0.297c1.4-1.709,1.148-4.229-0.559-5.629 C59.714,36.704,36.288,36.704,20.149,49.93z M92.987,33.001c-25.646-22.668-64.328-22.668-89.976,0 c-1.653,1.442-1.812,3.99-0.348,5.646c1.462,1.655,3.989,1.812,5.646,0.349c22.627-19.998,56.753-19.998,79.38,0 c1.593,1.406,3.992,1.315,5.476-0.166c0.06-0.06,0.115-0.119,0.171-0.184C94.799,36.991,94.643,34.464,92.987,33.001z"/></g></switch></svg>