<svg xmlns="http://www.w3.org/2000/svg" xmlns:xlink="http://www.w3.org/1999/xlink" id="Layer_1" width="96" height="96" x="0" y="0" enable-background="new 0 0 96 96" version="1.1" viewBox="0 0 96 96" xml:space="preserve"><switch><g><path d="M21.172,78.828c-1.562-1.562-1.562-4.095,0-5.656L46.343,48L21.172,22.828c-1.562-1.562-1.562-4.095,0-5.656 c1.562-1.562,4.095-1.562,5.656,0l28,28c1.562,1.562,1.562,4.095,0,5.656l-28,28C26.047,79.609,25.023,80,24,80 S21.953,79.609,21.172,78.828z M68,80c2.209,0,4-1.791,4-4V20c0-2.209-1.791-4-4-4s-4,1.791-4,4v56C64,78.209,65.791,80,68,80z"/></g></switch></svg>