<svg xmlns="http://www.w3.org/2000/svg" xmlns:xlink="http://www.w3.org/1999/xlink" id="Layer_1" width="96" height="96" x="0" y="0" enable-background="new 0 0 96 96" version="1.1" viewBox="0 0 96 96" xml:space="preserve"><switch><g><path d="M70.828,17.172c1.562,1.562,1.562,4.095,0,5.656L45.657,48l25.171,25.172c1.562,1.562,1.562,4.095,0,5.656 c-1.562,1.562-4.095,1.562-5.656,0l-28-28c-1.562-1.562-1.562-4.095,0-5.656l28-28C65.953,16.391,66.977,16,68,16 S70.047,16.391,70.828,17.172z M24,16c-2.209,0-4,1.791-4,4v56c0,2.209,1.791,4,4,4s4-1.791,4-4V20C28,17.791,26.209,16,24,16z"/></g></switch></svg>