<svg xmlns="http://www.w3.org/2000/svg" xmlns:xlink="http://www.w3.org/1999/xlink" id="Layer_1" width="96" height="96" x="0" y="0" enable-background="new 0 0 96 96" version="1.1" viewBox="0 0 96 96" xml:space="preserve"><switch><g><g><path d="M80,12c2.206,0,4,1.794,4,4v44c0,2.205-1.794,3.999-4,3.999H45.437L28,76.454V72v-8.001H16c-2.207,0-4-1.794-4-3.999V16 c0-2.207,1.794-4,4-4H80 M80,4H16C9.373,4,4,9.373,4,16v44c0,6.627,5.373,12,12,12h4v20l28-20h32c6.627,0,12-5.373,12-12V16 C92,9.373,86.627,4,80,4L80,4z"/></g></g></switch></svg>