<svg xmlns="http://www.w3.org/2000/svg" xmlns:xlink="http://www.w3.org/1999/xlink" id="Layer_1" width="96" height="96" x="0" y="0" enable-background="new 0 0 96 96" version="1.1" viewBox="0 0 96 96" xml:space="preserve"><switch><g><path d="M80,4H16C9.37,4,4,9.37,4,16v64c0,6.63,5.37,12,12,12h64c6.63,0,12-5.37,12-12V16C92,9.37,86.63,4,80,4z M84,80 c0,2.21-1.79,4-4,4H16c-2.21,0-4-1.79-4-4V16c0-2.21,1.79-4,4-4h64c2.21,0,4,1.79,4,4V80z M64,44H52V32c0-2.209-1.791-4-4-4 s-4,1.791-4,4v12H32c-2.209,0-4,1.791-4,4s1.791,4,4,4h12v12c0,2.209,1.791,4,4,4s4-1.791,4-4V52h12c2.209,0,4-1.791,4-4 S66.209,44,64,44z"/></g></switch></svg>