<svg xmlns="http://www.w3.org/2000/svg" xmlns:xlink="http://www.w3.org/1999/xlink" id="Layer_1" width="96" height="96" x="0" y="0" enable-background="new 0 0 96 96" version="1.1" viewBox="0 0 96 96" xml:space="preserve"><switch><g><path d="M45.942,12l36.886,36.888C83.848,49.906,84,51.097,84,51.716c0,0.618-0.152,1.809-1.172,2.828L54.544,82.828 c-1.02,1.02-2.21,1.172-2.828,1.172c-0.619,0-1.81-0.152-2.829-1.172L12,45.941V12H45.942 M49.255,4H4v45.255l39.23,39.23 C45.574,90.828,48.645,92,51.716,92c3.07,0,6.142-1.172,8.485-3.515l28.284-28.284c4.686-4.687,4.686-12.284,0-16.971L49.255,4 L49.255,4z M34,24c-5.523,0-10,4.478-10,10s4.477,10,10,10c5.522,0,10-4.478,10-10S39.523,24,34,24z M34,36c-1.104,0-2-0.896-2-2 s0.896-2,2-2s2,0.896,2,2S35.105,36,34,36z"/></g></switch></svg>