<svg xmlns="http://www.w3.org/2000/svg" xmlns:xlink="http://www.w3.org/1999/xlink" id="Layer_1" width="96" height="96" x="0" y="0" enable-background="new 0 0 96 96" version="1.1" viewBox="0 0 96 96" xml:space="preserve"><switch><g><path d="M60,57.029V14c0-7.732-6.268-14-14-14S32,6.268,32,14v43.029C27.114,61.062,24,67.168,24,74c0,12.15,9.85,22,22,22 s22-9.85,22-22C68,67.168,64.886,61.062,60,57.029z M46,88c-7.732,0-14-6.268-14-14c0-5.582,3.273-10.386,8-12.635V14 c0-3.312,2.688-6,6-6s6,2.688,6,6v47.365c4.727,2.249,8,7.053,8,12.635C60,81.732,53.732,88,46,88z"/></g></switch></svg>