<svg xmlns="http://www.w3.org/2000/svg" xmlns:xlink="http://www.w3.org/1999/xlink" id="Layer_1" width="96" height="96" x="0" y="0" enable-background="new 0 0 96 96" version="1.1" viewBox="0 0 96 96" xml:space="preserve"><switch><g><path d="M84,22H68v-4c0-6.63-5.37-12-12-12H40c-6.63,0-12,5.37-12,12v4H12c-2.209,0-4,1.791-4,4s1.791,4,4,4h4v48 c0,6.63,5.37,12,12,12h40c6.63,0,12-5.37,12-12V30h4c2.209,0,4-1.791,4-4S86.209,22,84,22z M36,18c0-2.21,1.79-4,4-4h16 c2.21,0,4,1.79,4,4v4H36V18z M72,78c0,2.21-1.79,4-4,4H28c-2.21,0-4-1.79-4-4V30h48V78z"/></g></switch></svg>