<svg xmlns="http://www.w3.org/2000/svg" xmlns:xlink="http://www.w3.org/1999/xlink" id="Layer_1" width="96" height="96" x="0" y="0" enable-background="new 0 0 96 96" version="1.1" viewBox="0 0 96 96" xml:space="preserve"><switch><g><path d="M72,72c-2.209,0-4,1.791-4,4c0,4.418-3.582,8-8,8s-8-3.582-8-8V52h44c0-2.726-0.228-5.398-0.664-8 C91.527,21.298,71.784,4,48,4S4.472,21.298,0.664,44C0.227,46.602,0,49.274,0,52h44v24c0,8.837,7.163,16,16,16s16-7.163,16-16 C76,73.791,74.209,72,72,72z M48,12c19.352,0,35.494,13.742,39.199,32H8.8C12.506,25.742,28.648,12,48,12z"/></g></switch></svg>