<svg xmlns="http://www.w3.org/2000/svg" xmlns:xlink="http://www.w3.org/1999/xlink" id="Layer_1" width="96" height="96" x="0" y="0" enable-background="new 0 0 96 96" version="1.1" viewBox="0 0 96 96" xml:space="preserve"><switch><g><path d="M8,68V12C8,5.372,13.372,0,20,0h56c6.628,0,12,5.372,12,12v56c0,6.628-5.372,12-12,12H60v-8h16c2.209,0,4-1.791,4-4V12 c0-2.209-1.791-4-4-4H20c-2.209,0-4,1.791-4,4v56c0,2.209,1.791,4,4,4h16v8H20C13.373,80,8,74.628,8,68z M29.172,46.828 c1.562,1.562,4.095,1.562,5.656,0L44,37.657v54.342V92c0,2.209,1.791,4,4,4s4-1.791,4-4V37.657l9.172,9.171 c1.562,1.562,4.095,1.562,5.656,0c1.562-1.562,1.562-4.095,0-5.656l-16-16C50.078,24.422,49.061,24,48,24 s-2.078,0.422-2.828,1.172l-16,16C27.609,42.733,27.609,45.267,29.172,46.828z"/></g></switch></svg>