<svg xmlns="http://www.w3.org/2000/svg" xmlns:xlink="http://www.w3.org/1999/xlink" id="Layer_1" width="96" height="96" x="0" y="0" enable-background="new 0 0 96 96" version="1.1" viewBox="0 0 96 96" xml:space="preserve"><switch><g><path d="M68,39.272V32c0-6.63-5.37-12-12-12H12C5.37,20,0,25.37,0,32v32c0,6.63,5.37,12,12,12h44c6.63,0,12-5.37,12-12v-7.272 L96,72V24L68,39.272z M60,64c0,2.21-1.79,4-4,4H12c-2.21,0-4-1.79-4-4V32c0-2.21,1.79-4,4-4h44c2.21,0,4,1.79,4,4V64z M88,58.523 L68.707,48L88,37.477V58.523z"/></g></switch></svg>