<svg xmlns="http://www.w3.org/2000/svg" xmlns:xlink="http://www.w3.org/1999/xlink" id="Layer_1" width="96" height="96" x="0" y="0" enable-background="new 0 0 96 96" version="1.1" viewBox="0 0 96 96" xml:space="preserve"><switch><g><path d="M12,32C5.37,32,0,37.537,0,44.167V52c0,6.63,5.37,12,12,12h8l20,20V12L20,32H12z M31.999,31.157L32,31v33.688L23.312,56 H12c-2.206,0-4-1.794-4-4v-7.833C8,41.908,9.832,40,12,40h11.312L31.999,31.157z M70.354,72.504c-0.699,0-1.406-0.183-2.049-0.567 c-1.896-1.134-2.515-3.589-1.381-5.485c1.631-2.729,2.892-5.66,3.746-8.712c0.882-3.15,1.329-6.424,1.329-9.73 s-0.447-6.58-1.329-9.73c-0.854-3.052-2.115-5.983-3.746-8.712c-1.134-1.896-0.516-4.352,1.381-5.485 c1.896-1.134,4.352-0.516,5.485,1.381c1.995,3.338,3.537,6.924,4.583,10.659C79.453,39.974,80,43.974,80,48.009 s-0.547,8.035-1.626,11.888c-1.046,3.735-2.588,7.321-4.583,10.659C73.042,71.809,71.715,72.504,70.354,72.504z M82.325,83.478 c-0.774,0-1.558-0.225-2.247-0.693c-1.826-1.243-2.299-3.731-1.056-5.558C84.896,68.596,88,58.493,88,48.009 s-3.104-20.587-8.978-29.218c-1.243-1.826-0.771-4.314,1.056-5.558c1.826-1.242,4.314-0.77,5.558,1.057 C92.416,24.253,96,35.913,96,48.009s-3.584,23.756-10.364,33.719C84.861,82.865,83.604,83.478,82.325,83.478z M58.134,61.301 c-0.517,0-1.042-0.101-1.548-0.313c-2.037-0.856-2.994-3.2-2.138-5.237C55.478,53.299,56,50.694,56,48.009 c0-2.702-0.528-5.32-1.57-7.783c-0.86-2.035,0.092-4.382,2.126-5.243c2.035-0.86,4.382,0.092,5.242,2.126 C63.259,40.563,64,44.23,64,48.009c0,3.756-0.732,7.403-2.177,10.841C61.18,60.38,59.696,61.301,58.134,61.301z"/></g></switch></svg>